<svg width="450" height="450" viewBox="0 0 450 450" fill="none" xmlns="http://www.w3.org/2000/svg">
<g clip-path="url(#clip0_0_3)">
<path d="M0 0H450V450H0V0Z" fill="#F3F3F3"/>
<path d="M19.5652 36.5652C19.5652 26.6241 27.6241 18.5652 37.5652 18.5652H197.217C207.159 18.5652 215.217 26.6241 215.217 36.5652V196.217C215.217 206.159 207.159 214.217 197.217 214.217H37.5652C27.6241 214.217 19.5652 206.159 19.5652 196.217V36.5652Z" fill="#F35325"/>
<path d="M234.783 37.5652C234.783 27.6241 242.841 19.5652 252.783 19.5652H412.435C422.376 19.5652 430.435 27.6241 430.435 37.5652V197.217C430.435 207.159 422.376 215.217 412.435 215.217H252.783C242.841 215.217 234.783 207.159 234.783 197.217V37.5652Z" fill="#81BC06"/>
<path d="M19.5652 252.783C19.5652 242.289 28.0718 233.783 38.5652 233.783H196.217C206.711 233.783 215.217 242.289 215.217 252.783V410.435C215.217 420.928 206.711 429.435 196.217 429.435H38.5652C28.0718 429.435 19.5652 420.928 19.5652 410.435V252.783Z" fill="#05A6F0"/>
<path d="M234.783 252.783C234.783 242.289 243.289 233.783 253.783 233.783H411.435C421.928 233.783 430.435 242.289 430.435 252.783V410.435C430.435 420.928 421.928 429.435 411.435 429.435H253.783C243.289 429.435 234.783 420.928 234.783 410.435V252.783Z" fill="#FFBA08"/>
<path d="M252.572 308.605L196.954 364.263C196.954 364.263 141.336 419.921 85.7189 364.263C30.1014 308.605 85.7189 252.947 85.7189 252.947L159.876 178.737C159.876 178.737 215.493 123.079 271.111 178.737C281.539 189.173 288 203.041 288 203.041L256.91 234.107C256.91 234.107 258.161 221.445 243.293 206.566C243.293 206.566 215.484 178.737 187.675 206.566L113.518 280.776C113.518 280.776 85.7096 308.605 113.518 336.434C141.327 364.263 169.136 336.434 169.136 336.434L203.702 301.843C203.702 301.843 220.888 315.952 256.038 305.127L252.572 308.605Z" fill="black"/>
<path d="M198.428 141.395L254.046 85.7368C254.046 85.7368 309.664 30.0789 365.281 85.7368C420.899 141.395 365.281 197.053 365.281 197.053L291.124 271.263C291.124 271.263 235.507 326.921 179.889 271.263C169.461 260.827 163 246.959 163 246.959L194.081 215.902C194.081 215.902 192.83 228.555 207.698 243.434C207.698 243.434 235.507 271.263 263.316 243.434L337.472 169.224C337.472 169.224 365.281 141.395 337.472 113.566C309.664 85.7368 281.855 113.566 281.855 113.566L247.288 148.157C247.288 148.157 230.103 134.048 194.952 144.873L198.428 141.395Z" fill="black"/>
</g>
<defs>
<clipPath id="clip0_0_3">
<rect width="450" height="450" rx="18" fill="white"/>
</clipPath>
</defs>
</svg>
