<svg width="450" height="450" viewBox="0 0 450 450" fill="none" xmlns="http://www.w3.org/2000/svg">
<path d="M19.5652 36.5652C19.5652 26.6241 27.6241 18.5652 37.5652 18.5652H197.217C207.159 18.5652 215.217 26.6241 215.217 36.5652V196.217C215.217 206.159 207.159 214.217 197.217 214.217H37.5652C27.6241 214.217 19.5652 206.159 19.5652 196.217V36.5652Z" fill="#F35325"/>
<path d="M234.783 37.5652C234.783 27.6241 242.841 19.5652 252.783 19.5652H412.435C422.376 19.5652 430.435 27.6241 430.435 37.5652V197.217C430.435 207.159 422.376 215.217 412.435 215.217H252.783C242.841 215.217 234.783 207.159 234.783 197.217V37.5652Z" fill="#81BC06"/>
<path d="M19.5652 252.783C19.5652 242.289 28.0718 233.783 38.5652 233.783H196.217C206.711 233.783 215.217 242.289 215.217 252.783V410.435C215.217 420.928 206.711 429.435 196.217 429.435H38.5652C28.0718 429.435 19.5652 420.928 19.5652 410.435V252.783Z" fill="#05A6F0"/>
<path d="M234.783 252.783C234.783 242.289 243.289 233.783 253.783 233.783H411.435C421.928 233.783 430.435 242.289 430.435 252.783V410.435C430.435 420.928 421.928 429.435 411.435 429.435H253.783C243.289 429.435 234.783 420.928 234.783 410.435V252.783Z" fill="#FFBA08"/>
</svg>
